General
Complete name                    : L.A. Confidential.mkv
Format                           : Matroska
File size                        : 1.15 GiB
Duration                         : 2h 12mn
Overall bit rate                 : 1 239 Kbps


Video
ID                               : 1
Format                           : AVC
Duration                         : 2h 12mn
Bit rate                         : 831 Kbps
Width                            : 716 pixels
Height                           : 424 pixels
Display aspect ratio             : 2.40:1
Frame rate                       : 25.000 fps
Resolution                       : 8 bits
Colorimetry                      : 4:2:0
Scan type                        : Progressive
Bits/(Pixel*Frame)               : 0.109
Stream size                      : 786 MiB (67%)
Writing library                  : x264 core 79


Audio
ID                               : 2
Format                           : AC-3
Format/Info                      : Audio Coding 3
Codec ID                         : A_AC3
Duration                         : 2h 12mn
Bit rate mode                    : Constant
Bit rate                         : 384 Kbps
Channel(s)                       : 6 channels
Channel positions                : Front: L C R, Surround: L R, LFE
Sampling rate                    : 48.0 KHz
Stream size                      : 363 MiB (31%)
Language                         : English

Text #1
Language                         : Arabic

Text #2
Language                         : Croatian

Text #3
Language                         : Czech

Text #4
Language                         : Danish

Text #5
Language                         : Finnish

Text #6
Language                         : French

Text #7
Language                         : German

Text #8
Language                         : Hungarian

Text #9
Language                         : Icelandic

Text #10
Language                         : Italian

Text #11
Language                         : Norwegian

Text #12
Language                         : Polish

Text #13
Language                         : Portuguese

Text #14
Language                         : Romanian

Text #15
Language                         : Serbian

Text #16
Language                         : Slovenian

Text #17
Language                         : Spanish

Text #18
Language                         : Swedish

Text #19
Language                         : Turkish

